<svg width="281" height="47" viewBox="0 0 281 47" fill="none" xmlns="http://www.w3.org/2000/svg">
<path d="M8.09604 0.286865L0 28.623H11.4694L15.1801 19.515L19.9028 28.623H31.7095L39.4682 19.515C38.906 22.551 37.3767 30.1747 35.7575 36.3817C33.7555 44.0561 34.2395 46.8391 39.4682 46.8391H74.8884L79.2737 33.0084H49.2509L57.5156 0.286865H45.8776L27.3241 19.515L19.9028 0.286865H8.09604Z" fill="#FF9F3D"/>
<path d="M74.8884 2.31087H62.7443L54.9856 28.623H66.7923L74.8884 2.31087Z" fill="#FF9F3D"/>
<path d="M79.2737 4.67222L72.527 28.623H80.623L82.9001 21.3703L88.0444 28.623H95.5501L103.393 20.78C102.69 22.6915 100.745 28.117 98.5861 34.5264C96.4272 40.9357 102.128 43.5501 105.248 44.0561H207.292C215.135 44.0561 217.244 42.4537 219.858 40.2611C222.472 38.0684 226.352 27.6953 226.689 24.9123C226.959 22.6859 224.581 20.6675 223.484 20.78L217.918 19.515C215.557 19.515 215.473 17.1536 218.509 17.1536H221.966L225.34 14.1176C224.215 13.8927 220.887 13.5779 216.569 14.1176C211.172 14.7923 211.172 19.0933 216.569 22.1293C220.887 24.5581 219.717 29.4101 217.918 31.3217H208.81C207.461 31.3217 205.521 30.3097 206.112 28.623L211.593 13.0213H205.184L202.401 19.515L197.678 11.7563H190.257L184.438 29.2133H191.859L194.389 22.1293L200.377 31.3217H182.161C183.623 26.599 186.614 16.7488 186.884 15.1296C187.153 13.5104 185.647 12.206 184.86 11.7563H176.005H171.703L163.945 27.611H171.703L175.077 19.515H178.45L173.053 31.3217H166.643H162.595C159.43 31.3217 162.511 25.84 163.945 22.1293C165.092 19.1608 163.186 17.8002 162.089 17.4909C162.708 17.6315 164.485 17.356 166.643 15.1296C168.802 12.9032 168.92 10.4912 166.643 9.56358C164.366 8.6359 155.005 9.14191 149.102 9.56358C146.488 16.3103 141.681 28.623 141.681 28.623H149.777L153.825 19.515H157.198L151.801 33.0084H136.621L141.681 11.7563H144.717L147.078 8.04557H131.223L129.199 11.7563H132.91L127.175 33.0084H110.646L118.405 4.67222H108.285L92.7671 19.515L88.0444 4.67222H79.2737Z" fill="#FF9F3D"/>
<path d="M239.845 15.1296H229.388L239.845 28.623L229.388 42.4537H239.845L251.315 28.623L239.845 15.1296Z" fill="#FF9F3D"/>
<path d="M269.531 15.1296H259.073L269.531 28.623L259.073 42.4537H269.531L281 28.623L269.531 15.1296Z" fill="#FF9F3D"/>
<path d="M154.499 15.1296L155.427 13.0212H159.644L158.8 15.1296H154.499Z" fill="#ECF3EA"/>
<path d="M175.414 17.238L176.342 15.1296H180.559L179.715 17.238H175.414Z" fill="#ECF3EA"/>
<path d="M254.688 15.1296H244.23L254.688 28.623L244.23 42.4538H254.688L266.157 28.623L254.688 15.1296Z" fill="#788AF6"/>
</svg>
