<svg id="svg" version="1.1" xmlns="http://www.w3.org/2000/svg" xmlns:xlink="http://www.w3.org/1999/xlink" width="400" height="393.40659340659346" viewBox="0, 0, 400,393.40659340659346"><g id="svgg"><path id="path0" d="M241.142 40.945 C 241.008 41.161,240.357 41.339,239.695 41.339 C 238.939 41.339,237.792 41.852,236.614 42.717 C 235.582 43.474,234.584 44.094,234.396 44.093 C 233.816 44.092,230.521 45.844,230.353 46.245 C 230.265 46.453,229.523 47.225,228.704 47.961 L 227.213 49.299 228.211 51.519 C 229.824 55.110,230.336 56.709,230.921 59.979 L 231.473 63.069 230.277 65.366 C 228.690 68.416,228.710 68.406,224.431 68.437 C 220.019 68.469,219.248 68.881,217.688 72.034 C 216.960 73.507,216.298 74.266,215.417 74.636 C 214.540 75.005,214.170 75.426,214.164 76.064 C 214.158 76.561,213.828 77.943,213.431 79.134 C 212.981 80.480,212.607 83.160,212.440 86.220 C 212.293 88.927,212.078 91.625,211.963 92.216 C 211.803 93.028,211.996 93.516,212.751 94.216 C 215.060 96.355,213.545 103.376,209.297 110.222 C 207.630 112.908,207.740 113.173,210.749 113.719 C 217.505 114.944,218.474 115.438,218.495 117.668 C 218.508 119.046,214.708 124.016,213.642 124.016 C 212.357 124.016,210.858 128.097,211.135 130.844 C 211.279 132.273,211.107 133.573,210.555 135.236 C 209.561 138.232,209.474 138.327,207.186 138.913 C 203.554 139.844,202.276 141.865,203.163 145.276 C 203.416 146.250,203.706 147.756,203.807 148.622 C 203.945 149.794,204.338 150.500,205.345 151.380 C 206.089 152.030,207.007 153.182,207.384 153.939 L 208.071 155.315 213.386 155.315 C 217.991 155.315,218.937 155.203,220.472 154.477 C 224.045 152.786,225.007 152.970,225.399 155.418 C 225.758 157.661,226.544 159.166,228.516 161.387 C 229.505 162.501,230.315 163.583,230.315 163.791 C 230.315 165.081,235.782 168.827,240.064 170.472 C 240.922 170.802,241.430 171.309,241.595 171.999 C 241.730 172.567,241.974 173.209,242.136 173.425 C 242.298 173.642,242.557 174.583,242.711 175.517 C 242.933 176.863,243.207 177.296,244.034 177.611 C 244.607 177.829,245.963 178.680,247.046 179.503 C 248.129 180.326,249.813 181.244,250.787 181.544 C 252.338 182.022,252.542 182.213,252.426 183.073 C 251.743 188.116,251.861 189.316,253.156 190.499 C 254.191 191.444,254.336 191.774,253.997 192.408 C 253.705 192.953,253.731 193.660,254.085 194.861 C 254.479 196.195,254.485 197.073,254.114 199.047 C 253.283 203.469,253.472 203.537,263.386 202.393 C 265.226 202.181,267.952 201.888,269.444 201.742 C 271.991 201.492,272.255 201.372,273.805 199.754 C 275.637 197.842,276.673 197.614,277.793 198.876 C 278.206 199.341,279.341 200.072,280.315 200.501 C 281.289 200.930,282.795 201.842,283.661 202.528 C 287.698 205.723,289.546 206.597,290.520 205.774 C 290.862 205.484,291.762 205.005,292.520 204.709 C 295.030 203.728,298.031 201.475,298.031 200.572 C 298.031 200.094,298.707 199.129,299.606 198.322 C 300.472 197.544,301.181 196.661,301.181 196.360 C 301.181 195.616,302.787 194.271,304.053 193.953 C 304.622 193.810,305.657 192.985,306.353 192.118 C 307.247 191.005,307.826 190.608,308.322 190.765 C 309.319 191.082,310.630 190.273,310.630 189.342 C 310.630 188.028,314.910 182.136,316.733 180.941 C 317.274 180.587,317.717 180.041,317.717 179.729 C 317.717 178.934,318.715 178.485,321.664 177.954 C 323.066 177.701,324.744 177.176,325.394 176.786 C 326.260 176.267,327.731 176.021,330.906 175.865 C 336.345 175.596,340.593 174.497,342.270 172.925 C 343.437 171.830,347.791 169.291,348.501 169.291 C 349.227 169.291,353.143 172.192,353.366 172.895 C 354.132 175.308,356.534 176.137,357.800 174.425 C 358.886 172.957,358.878 172.781,357.677 171.654 C 355.981 170.060,357.628 165.796,360.433 164.516 C 362.309 163.659,362.301 160.437,360.417 157.969 C 358.933 156.026,358.734 155.087,359.646 154.331 C 359.970 154.061,360.236 153.700,360.236 153.527 C 360.236 153.108,354.567 148.816,352.461 147.640 C 350.351 146.462,350.334 145.715,352.362 143.410 C 353.228 142.427,353.937 141.219,353.937 140.728 C 353.937 139.640,356.012 137.795,357.235 137.795 C 358.736 137.795,359.055 137.055,359.055 133.564 C 359.055 129.879,358.119 128.385,355.795 128.359 C 354.517 128.344,354.046 127.484,354.642 126.253 C 355.601 124.276,355.832 121.523,355.310 118.306 C 355.104 117.037,355.214 116.546,355.873 115.785 C 356.888 114.615,356.891 114.352,355.906 113.100 C 355.019 111.973,354.907 110.736,355.562 109.300 C 356.768 106.651,354.888 105.245,351.034 105.913 C 346.744 106.656,340.031 107.923,337.205 108.523 C 330.000 110.052,329.528 109.881,329.528 105.744 L 329.528 102.922 327.169 100.266 C 324.434 97.184,324.226 96.588,324.523 92.671 C 324.837 88.509,323.753 87.458,321.624 89.862 C 320.470 91.166,320.292 91.336,317.666 93.637 C 316.050 95.053,312.031 96.201,305.118 97.221 C 303.278 97.493,301.344 97.884,300.822 98.091 C 299.542 98.597,299.136 98.082,298.064 94.587 C 297.529 92.841,296.977 91.732,296.644 91.732 C 296.345 91.732,295.766 90.979,295.358 90.059 C 294.320 87.717,293.857 87.455,290.534 87.322 L 287.598 87.205 287.473 85.447 C 287.327 83.392,287.988 82.677,290.036 82.677 C 291.759 82.677,291.778 81.324,290.153 74.523 C 288.818 68.938,288.891 68.589,291.583 67.701 C 293.194 67.169,293.196 67.139,291.916 61.379 C 291.265 58.452,291.004 56.372,291.165 55.402 C 291.485 53.472,290.699 50.239,289.582 48.894 C 289.098 48.311,288.591 47.037,288.454 46.063 C 287.753 41.057,286.512 40.147,283.330 42.306 C 281.986 43.218,281.826 43.240,280.532 42.700 C 278.339 41.783,276.944 42.483,277.393 44.275 C 277.619 45.175,277.569 45.189,273.161 45.471 C 269.534 45.703,268.569 45.896,267.994 46.503 C 267.153 47.391,266.332 47.258,262.532 45.620 C 261.089 44.998,259.617 44.488,259.263 44.488 C 258.908 44.488,257.841 44.134,256.892 43.702 C 254.914 42.801,253.725 43.041,252.508 44.589 C 251.191 46.264,247.638 46.180,247.638 44.475 C 247.638 44.261,247.264 43.291,246.807 42.319 L 245.976 40.551 243.681 40.551 C 242.418 40.551,241.276 40.728,241.142 40.945 " stroke="none" fill="#fb6c6c" fill-rule="evenodd"></path><path id="path1" d="M0.000 196.850 L 0.000 393.701 200.000 393.701 L 400.000 393.701 400.000 196.850 L 400.000 0.000 200.000 0.000 L 0.000 0.000 0.000 196.850 M245.775 40.123 C 246.453 40.381,246.966 41.159,247.594 42.879 C 248.710 45.941,250.542 46.323,252.477 43.898 C 253.679 42.392,254.807 42.157,256.614 43.037 C 257.199 43.322,258.651 43.793,259.841 44.083 C 261.031 44.373,262.568 44.927,263.256 45.313 C 265.425 46.531,267.251 46.682,268.150 45.718 C 268.904 44.908,271.277 44.607,275.689 44.763 C 276.542 44.793,276.774 44.622,276.784 43.956 C 276.812 42.057,278.553 41.183,280.370 42.156 C 280.987 42.486,281.553 42.394,282.943 41.741 C 287.026 39.822,288.194 40.647,288.930 45.972 C 289.130 47.420,289.468 48.223,290.049 48.630 C 291.021 49.310,292.354 54.387,291.814 55.352 C 291.465 55.975,291.688 57.776,292.709 62.598 C 293.603 66.816,293.436 67.808,291.745 68.355 C 289.464 69.092,289.411 70.330,291.358 77.362 C 291.538 78.012,291.740 79.512,291.807 80.696 L 291.929 82.850 290.186 83.149 C 288.006 83.522,287.707 83.823,287.865 85.481 L 287.992 86.811 290.927 86.928 C 294.191 87.059,294.713 87.337,295.663 89.456 C 296.024 90.262,296.793 91.293,297.372 91.749 C 297.951 92.204,298.428 92.963,298.431 93.434 C 298.461 97.722,299.237 97.918,308.722 96.033 C 316.060 94.574,318.862 93.126,320.952 89.710 C 322.942 86.458,325.349 88.004,324.990 92.304 C 324.649 96.397,324.749 96.690,327.583 99.914 L 329.908 102.559 329.914 105.365 C 329.924 109.482,329.840 109.453,337.522 107.898 C 355.414 104.276,356.738 104.341,356.116 108.809 C 355.726 111.619,355.775 112.196,356.475 112.969 C 357.250 113.826,357.260 115.114,356.496 115.748 C 355.864 116.273,355.722 119.270,356.263 120.655 C 356.575 121.452,355.559 126.073,355.020 126.312 C 354.288 126.637,354.835 127.483,355.917 127.699 C 356.573 127.830,357.725 128.428,358.476 129.028 L 359.842 130.118 359.843 133.502 C 359.843 137.152,359.524 137.807,357.480 138.364 C 355.462 138.914,354.736 139.499,354.498 140.769 C 354.366 141.468,353.567 142.783,352.720 143.691 C 350.793 145.758,350.800 146.097,352.792 147.217 C 355.498 148.738,360.630 152.780,360.630 153.390 C 360.630 153.706,360.363 154.371,360.038 154.869 C 359.481 155.718,359.539 155.903,360.988 157.927 C 363.121 160.906,362.928 163.931,360.531 165.059 C 359.719 165.441,359.055 165.974,359.055 166.243 C 359.054 166.512,358.611 167.247,358.070 167.876 C 356.830 169.318,356.830 170.094,358.071 171.260 C 359.363 172.474,359.314 173.557,357.896 175.109 C 356.316 176.839,354.455 176.133,352.955 173.233 C 352.647 172.638,351.520 171.589,350.451 170.903 L 348.507 169.655 345.946 171.063 C 344.537 171.837,342.941 172.914,342.398 173.457 C 340.949 174.907,336.767 175.984,331.501 176.264 C 327.963 176.452,326.592 176.695,325.202 177.380 C 324.225 177.861,322.539 178.382,321.457 178.537 C 318.963 178.893,318.110 179.352,318.110 180.339 C 318.110 180.797,317.729 181.267,317.192 181.471 C 315.573 182.086,311.024 188.139,311.024 189.677 C 311.024 190.718,310.242 191.339,308.930 191.339 C 308.108 191.339,307.348 191.785,306.254 192.913 C 305.413 193.780,304.387 194.488,303.972 194.488 C 303.234 194.488,301.181 196.546,301.181 197.286 C 301.181 197.493,300.561 198.206,299.803 198.872 C 299.018 199.561,298.425 200.452,298.425 200.942 C 298.425 201.867,295.481 204.093,292.913 205.110 C 292.156 205.410,291.119 205.973,290.610 206.361 C 289.492 207.212,289.063 207.034,284.645 203.877 C 283.021 202.718,280.950 201.437,280.041 201.031 C 279.133 200.625,277.995 199.873,277.512 199.359 C 276.308 198.078,275.969 198.162,274.140 200.197 C 272.651 201.854,272.420 201.969,270.552 201.969 C 269.454 201.969,268.056 202.171,267.447 202.419 C 266.837 202.666,264.833 203.031,262.992 203.230 C 253.533 204.251,252.715 203.858,253.580 198.707 C 254.223 194.879,254.038 194.639,250.169 194.276 C 248.554 194.125,247.136 193.845,247.018 193.654 C 246.411 192.671,244.995 193.451,243.324 195.691 C 241.274 198.438,241.202 198.437,239.282 195.640 C 237.085 192.440,237.054 192.414,235.678 192.703 C 235.002 192.844,233.807 192.947,233.023 192.931 C 231.791 192.906,231.528 193.066,231.097 194.107 C 230.720 195.018,229.977 195.602,228.051 196.503 C 225.543 197.675,225.508 197.714,225.794 198.945 C 225.953 199.634,226.205 201.141,226.353 202.295 L 226.623 204.394 225.615 204.137 C 222.193 203.267,222.209 203.261,220.508 205.963 C 217.873 210.146,218.079 209.960,216.531 209.549 C 215.137 209.178,214.642 209.301,211.417 210.820 C 210.659 211.176,209.596 211.713,209.055 212.012 C 208.514 212.311,207.737 212.657,207.328 212.782 C 206.607 213.002,206.607 213.032,207.309 213.807 C 207.775 214.322,207.997 215.088,207.933 215.964 C 207.719 218.920,207.732 219.922,207.998 220.866 C 208.368 222.180,207.858 222.857,206.252 223.183 C 205.078 223.421,204.909 223.614,204.815 224.817 C 204.586 227.755,204.556 227.788,201.682 228.273 C 195.835 229.261,194.916 229.190,194.293 227.700 C 192.930 224.438,188.189 227.966,188.189 232.243 L 188.189 234.551 192.752 238.893 C 198.448 244.314,198.489 244.638,193.502 244.800 C 189.226 244.939,189.240 244.927,188.955 248.807 C 188.632 253.200,185.987 256.783,181.261 259.230 C 179.280 260.256,178.792 260.735,177.953 262.485 C 177.411 263.613,176.614 264.651,176.181 264.792 C 175.748 264.932,174.862 265.531,174.213 266.123 C 173.563 266.714,172.443 267.601,171.724 268.094 C 169.585 269.561,167.323 272.707,167.323 274.216 C 167.323 276.927,166.631 277.273,163.436 276.161 C 160.722 275.215,154.461 275.770,151.378 277.228 C 150.079 277.843,148.541 278.346,147.961 278.346 C 146.140 278.347,145.781 279.133,145.477 283.794 C 145.288 286.686,145.338 288.357,145.629 288.902 C 146.530 290.585,146.187 291.308,144.243 291.828 C 143.241 292.096,142.375 292.494,142.318 292.713 C 142.260 292.931,141.887 294.869,141.488 297.018 C 140.643 301.569,140.162 302.317,137.781 302.776 C 134.934 303.325,133.908 303.220,133.165 302.303 C 130.907 299.512,129.678 299.294,127.411 301.280 L 125.950 302.559 126.367 304.711 C 126.908 307.508,126.746 307.409,131.304 307.716 C 135.802 308.019,136.614 308.313,136.614 309.637 C 136.614 310.886,135.320 311.747,132.973 312.058 C 131.269 312.284,131.132 312.375,131.628 312.946 C 131.932 313.296,132.292 314.070,132.429 314.665 C 132.565 315.261,132.788 316.200,132.924 316.752 C 133.184 317.812,131.869 319.685,130.864 319.685 C 130.195 319.685,130.026 321.096,130.446 323.179 C 130.863 325.247,130.526 325.573,127.953 325.591 C 125.226 325.609,124.935 325.938,125.543 328.311 C 125.959 329.933,125.959 330.567,125.543 331.781 C 125.201 332.779,125.017 335.857,124.983 341.142 C 124.941 347.710,124.819 349.271,124.245 350.558 C 123.650 351.891,123.623 352.336,124.044 353.841 C 124.629 355.929,123.984 356.633,119.828 358.444 L 117.371 359.514 114.849 358.104 C 112.554 356.821,112.011 356.684,108.821 356.587 L 105.315 356.480 105.302 353.142 C 105.290 350.243,105.140 349.518,104.156 347.638 C 103.533 346.447,102.903 345.207,102.755 344.882 C 102.608 344.557,101.794 344.065,100.948 343.789 C 100.102 343.513,98.727 342.711,97.893 342.008 L 96.376 340.729 96.836 337.692 C 97.356 334.266,97.240 333.859,95.744 333.856 C 95.162 333.854,93.179 333.491,91.339 333.048 C 88.146 332.281,84.659 331.734,79.921 331.259 C 78.730 331.139,77.206 330.873,76.533 330.666 C 75.264 330.277,73.539 330.675,73.047 331.472 C 72.448 332.441,71.018 331.742,68.167 329.088 C 64.496 325.670,64.651 326.129,66.340 323.673 C 68.348 320.755,68.495 320.182,67.821 317.913 C 67.500 316.831,67.171 315.719,67.092 315.444 C 66.941 314.922,66.660 314.789,64.862 314.395 C 63.830 314.169,63.780 314.050,63.780 311.832 C 63.780 309.363,62.730 307.874,60.990 307.874 C 58.371 307.874,55.027 306.456,52.854 304.424 C 51.126 302.808,51.207 302.466,53.937 299.867 L 56.299 297.618 56.299 294.502 C 56.299 291.188,56.071 290.748,54.347 290.748 C 53.156 290.748,51.794 288.541,51.182 285.620 C 50.604 282.855,49.539 281.296,47.280 279.906 C 44.647 278.286,43.429 276.261,44.293 274.943 C 44.726 274.281,44.834 273.572,44.651 272.596 C 44.502 271.801,44.576 270.828,44.823 270.343 C 46.940 266.183,47.554 262.066,46.332 260.229 C 45.831 259.475,45.192 258.289,44.913 257.594 C 44.320 256.116,41.261 253.137,39.334 252.160 C 35.656 250.295,36.020 247.849,39.780 249.159 C 40.699 249.480,41.342 249.450,42.444 249.037 C 47.104 247.291,51.575 248.356,51.575 251.211 C 51.575 251.710,51.848 251.969,52.375 251.969 C 53.445 251.969,53.689 251.170,53.248 249.105 C 53.047 248.161,53.019 247.019,53.186 246.568 C 53.419 245.938,53.312 245.701,52.727 245.548 C 52.271 245.428,52.051 245.126,52.178 244.793 C 52.393 244.235,51.001 242.126,50.418 242.126 C 49.622 242.126,47.991 243.818,48.397 244.224 C 49.021 244.848,48.910 245.278,48.130 245.260 C 47.751 245.252,47.087 244.730,46.654 244.101 C 43.915 240.120,42.431 238.171,41.795 237.720 C 40.756 236.984,39.617 234.277,38.815 230.641 C 38.687 230.062,37.974 228.790,37.229 227.814 C 35.752 225.879,36.062 224.287,37.588 225.973 C 38.491 226.971,38.893 226.756,43.590 222.761 C 46.634 220.173,47.390 219.707,48.214 219.913 C 48.939 220.095,49.520 219.890,50.417 219.135 C 51.837 217.940,52.089 217.897,52.779 218.728 C 53.061 219.068,53.614 219.262,54.008 219.159 C 54.402 219.056,54.724 219.138,54.724 219.341 C 54.724 219.544,55.699 221.101,56.890 222.801 C 58.081 224.500,59.055 226.167,59.055 226.505 C 59.055 226.843,59.232 227.228,59.449 227.362 C 59.665 227.496,59.843 227.880,59.843 228.214 C 59.843 228.549,60.273 229.335,60.800 229.961 C 61.600 230.912,61.700 231.298,61.407 232.318 C 61.215 232.988,61.166 234.079,61.299 234.741 C 61.460 235.547,61.356 236.088,60.986 236.378 C 60.682 236.616,59.844 237.497,59.124 238.335 L 57.814 239.859 59.813 241.001 C 60.912 241.628,61.811 242.273,61.811 242.433 C 61.811 243.163,63.833 243.906,66.535 244.170 C 68.159 244.328,70.197 244.561,71.063 244.687 C 73.720 245.073,75.678 243.292,78.307 238.099 C 78.825 237.075,79.533 236.169,79.880 236.087 C 80.482 235.944,90.122 236.078,94.291 236.288 C 98.899 236.519,105.972 235.473,108.572 234.176 L 111.041 232.944 113.013 233.868 C 114.098 234.376,115.179 235.025,115.415 235.309 C 115.651 235.594,116.433 235.827,117.152 235.827 C 120.323 235.827,121.957 240.409,119.877 243.473 C 118.674 245.247,118.834 246.063,120.385 246.063 C 122.361 246.063,123.127 245.182,122.499 243.634 C 121.924 242.216,121.916 242.176,121.252 237.795 C 120.867 235.253,120.895 234.629,121.455 233.309 C 121.928 232.194,122.033 231.247,121.839 229.835 C 121.192 225.137,125.338 224.896,126.732 229.550 C 127.253 231.288,128.938 233.465,129.763 233.465 C 130.080 233.465,131.015 231.977,131.929 230.020 C 132.813 228.125,133.742 226.155,133.993 225.641 C 136.268 220.983,145.408 222.595,143.274 227.277 C 142.442 229.105,143.774 231.250,145.536 230.919 C 146.554 230.729,147.438 230.854,148.525 231.344 C 150.417 232.197,150.749 232.022,153.181 228.894 C 154.173 227.619,155.679 226.103,156.528 225.526 C 158.328 224.303,158.973 222.651,159.037 219.094 C 159.101 215.602,159.532 215.219,163.691 214.970 L 167.126 214.764 166.982 211.220 C 166.898 209.142,166.598 207.209,166.257 206.544 C 165.937 205.921,165.410 204.503,165.085 203.394 C 164.458 201.250,163.091 199.503,161.319 198.577 C 160.076 197.928,159.898 196.696,160.888 195.602 C 161.725 194.677,162.805 194.695,167.351 195.713 C 174.327 197.276,174.983 197.233,179.230 194.936 C 181.516 193.700,183.097 192.578,183.357 192.007 C 184.415 189.687,187.292 189.441,187.478 191.655 C 187.615 193.282,187.933 193.492,192.377 194.883 C 196.325 196.119,198.279 195.474,202.113 191.670 C 203.606 190.188,204.903 188.976,204.994 188.976 C 205.840 188.976,210.673 190.302,210.846 190.582 C 211.571 191.756,212.107 190.757,212.357 187.764 C 212.840 181.976,213.030 181.102,213.810 181.102 C 215.031 181.102,215.045 180.376,213.853 178.842 C 212.335 176.888,212.181 176.330,212.787 174.965 C 213.067 174.335,213.524 173.222,213.802 172.492 L 214.308 171.165 214.874 173.083 C 215.186 174.137,215.504 175.221,215.582 175.492 C 216.039 177.083,218.504 175.645,218.504 173.788 C 218.504 172.251,219.284 171.538,220.604 171.869 C 221.567 172.111,223.622 169.824,223.622 168.512 C 223.622 168.291,223.769 168.110,223.949 168.110 C 224.129 168.110,224.528 167.623,224.835 167.028 C 225.142 166.432,225.798 165.335,226.293 164.591 C 226.788 163.846,227.103 163.004,226.994 162.721 C 226.885 162.437,227.057 162.205,227.375 162.205 C 228.153 162.205,228.127 162.108,226.808 160.154 C 226.178 159.221,225.425 157.485,225.134 156.296 C 224.502 153.710,224.042 153.630,219.338 155.280 C 213.729 157.248,206.693 156.503,206.693 153.942 C 206.693 153.542,206.002 152.669,205.158 152.000 C 203.901 151.005,203.589 150.480,203.441 149.112 C 203.342 148.193,202.969 146.413,202.614 145.158 C 201.555 141.414,203.416 139.093,208.331 138.025 C 209.184 137.840,209.428 137.511,209.639 136.258 C 209.782 135.411,210.127 134.408,210.404 134.028 C 210.742 133.567,210.853 132.476,210.739 130.743 C 210.521 127.426,211.999 123.362,213.365 123.520 C 214.241 123.621,218.101 118.886,218.096 117.717 C 218.087 115.978,215.815 115.006,209.361 113.981 C 207.086 113.619,206.962 112.867,208.719 110.087 C 209.556 108.762,210.453 107.234,210.712 106.693 C 210.970 106.152,211.518 105.214,211.929 104.610 C 213.246 102.670,213.524 95.702,212.324 94.685 L 211.396 93.898 211.816 87.795 C 212.245 81.559,212.795 78.121,213.425 77.731 C 213.620 77.611,213.780 76.925,213.780 76.206 C 213.780 74.829,214.272 74.192,215.516 73.960 C 215.980 73.873,216.801 72.799,217.651 71.166 C 219.256 68.087,219.448 67.991,224.213 67.904 C 227.988 67.834,229.134 67.557,229.134 66.713 C 229.134 66.423,229.498 65.569,229.944 64.814 C 231.247 62.605,230.440 57.769,227.776 51.824 C 226.652 49.316,226.872 48.244,228.713 47.258 C 229.132 47.034,229.581 46.541,229.711 46.162 C 229.917 45.563,233.192 43.701,234.040 43.701 C 234.207 43.701,235.188 43.081,236.220 42.323 C 237.253 41.565,238.541 40.945,239.083 40.945 C 239.624 40.945,240.575 40.680,241.195 40.357 C 242.474 39.690,244.380 39.593,245.775 40.123 M107.579 286.875 C 106.893 287.152,106.962 287.795,107.677 287.795 C 108.002 287.795,108.268 287.530,108.268 287.205 C 108.268 286.880,108.223 286.628,108.169 286.645 C 108.115 286.662,107.849 286.766,107.579 286.875 M114.173 291.929 C 114.173 292.254,114.350 292.520,114.567 292.520 C 114.783 292.520,114.961 292.254,114.961 291.929 C 114.961 291.604,114.783 291.339,114.567 291.339 C 114.350 291.339,114.173 291.604,114.173 291.929 M114.567 294.413 C 114.567 294.588,114.827 295.075,115.145 295.496 C 115.699 296.228,115.724 296.214,115.736 295.177 C 115.744 294.472,115.542 294.094,115.157 294.094 C 114.833 294.094,114.567 294.238,114.567 294.413 M121.694 301.594 L 121.734 303.346 122.149 302.050 C 122.452 301.103,122.442 300.631,122.109 300.298 C 121.764 299.953,121.663 300.268,121.694 301.594 M121.066 304.323 C 120.929 304.751,121.001 305.416,121.224 305.799 C 121.555 306.368,121.632 306.224,121.642 305.020 C 121.655 303.388,121.443 303.132,121.066 304.323 " stroke="none" fill="#fbfbfb" fill-rule="evenodd"></path><path id="path2" d="M243.674 40.450 C 245.088 40.547,245.985 40.823,246.319 41.263 C 246.598 41.629,246.831 41.743,246.838 41.516 C 246.866 40.591,245.822 40.160,243.720 40.230 L 241.535 40.303 243.674 40.450 M239.764 40.902 C 238.282 41.160,235.827 42.479,235.827 43.018 C 235.827 43.199,236.419 42.895,237.143 42.343 C 237.900 41.766,238.979 41.339,239.679 41.339 C 240.350 41.339,241.008 41.161,241.142 40.945 C 241.276 40.728,241.330 40.576,241.263 40.607 C 241.196 40.638,240.522 40.771,239.764 40.902 M277.854 42.158 C 277.475 42.378,277.165 42.740,277.165 42.961 C 277.165 43.182,277.457 43.072,277.813 42.716 C 278.243 42.286,278.804 42.149,279.486 42.306 C 280.257 42.485,280.365 42.444,279.921 42.144 C 279.184 41.645,278.729 41.648,277.854 42.158 M282.540 42.308 C 282.140 42.611,281.520 42.770,281.163 42.660 C 280.623 42.494,280.631 42.537,281.207 42.907 C 281.762 43.263,282.112 43.190,282.934 42.543 C 284.072 41.648,283.703 41.428,282.540 42.308 M252.726 43.996 L 251.772 45.079 252.756 44.243 C 253.297 43.783,254.006 43.310,254.331 43.191 C 254.836 43.007,254.832 42.971,254.301 42.944 C 253.960 42.927,253.251 43.401,252.726 43.996 M262.598 45.669 C 263.356 46.084,264.154 46.424,264.370 46.424 C 264.587 46.424,264.144 46.084,263.386 45.669 C 262.628 45.254,261.831 44.915,261.614 44.915 C 261.398 44.915,261.841 45.254,262.598 45.669 M269.987 45.561 C 270.695 45.649,271.758 45.647,272.350 45.557 C 272.941 45.467,272.362 45.395,271.063 45.398 C 269.764 45.400,269.280 45.473,269.987 45.561 M288.583 47.535 C 288.583 47.755,288.876 48.178,289.234 48.475 C 289.592 48.772,290.116 49.547,290.399 50.197 C 290.682 50.846,290.921 51.092,290.929 50.743 C 290.938 50.394,290.413 49.439,289.764 48.622 C 289.114 47.805,288.583 47.316,288.583 47.535 M228.374 52.559 C 228.374 52.776,228.628 53.396,228.937 53.937 C 229.246 54.478,229.500 54.744,229.500 54.528 C 229.500 54.311,229.246 53.691,228.937 53.150 C 228.628 52.608,228.374 52.343,228.374 52.559 M291.157 55.330 C 291.005 56.549,290.962 57.628,291.062 57.728 C 291.162 57.828,291.368 56.913,291.520 55.694 C 291.673 54.474,291.715 53.395,291.616 53.295 C 291.516 53.195,291.309 54.111,291.157 55.330 M230.438 64.213 C 229.965 65.274,229.651 66.142,229.741 66.142 C 230.028 66.142,231.547 62.947,231.421 62.609 C 231.354 62.431,230.912 63.153,230.438 64.213 M222.835 68.124 C 221.152 68.399,221.184 68.411,223.485 68.361 C 224.817 68.331,225.825 68.174,225.725 68.012 C 225.529 67.692,225.465 67.694,222.835 68.124 M289.588 68.875 C 289.207 69.295,288.988 69.871,289.102 70.154 C 289.261 70.551,289.315 70.541,289.339 70.110 C 289.356 69.802,289.663 69.226,290.022 68.830 C 290.380 68.434,290.585 68.110,290.476 68.110 C 290.368 68.110,289.968 68.454,289.588 68.875 M289.437 71.260 C 289.457 72.283,290.077 73.963,290.091 73.031 C 290.097 72.598,289.950 71.890,289.764 71.457 C 289.556 70.974,289.430 70.898,289.437 71.260 M291.402 80.980 C 291.340 82.583,291.297 82.634,289.862 82.784 L 288.386 82.939 289.875 83.005 C 291.559 83.080,291.873 82.657,291.626 80.648 C 291.478 79.443,291.459 79.471,291.402 80.980 M212.323 84.646 C 212.323 85.837,212.397 86.324,212.487 85.728 C 212.577 85.133,212.577 84.158,212.487 83.563 C 212.397 82.968,212.323 83.455,212.323 84.646 M323.895 88.922 C 324.662 89.660,324.741 90.072,324.605 92.613 L 324.452 95.472 324.796 92.913 C 325.202 89.890,325.044 89.127,323.891 88.534 L 323.031 88.092 323.895 88.922 M321.455 89.372 C 320.448 90.485,320.876 90.588,321.935 89.488 C 322.414 88.990,322.663 88.583,322.488 88.583 C 322.313 88.583,321.848 88.938,321.455 89.372 M317.101 93.799 L 315.945 95.079 317.224 93.922 C 317.928 93.286,318.504 92.711,318.504 92.643 C 318.504 92.339,318.179 92.607,317.101 93.799 M211.886 93.667 C 211.977 93.973,212.484 94.494,213.014 94.824 C 213.760 95.289,213.844 95.297,213.386 94.858 C 213.061 94.546,212.553 94.026,212.258 93.701 C 211.825 93.225,211.753 93.219,211.886 93.667 M311.811 95.687 C 311.380 95.979,311.539 96.016,312.402 95.823 C 313.849 95.499,314.163 95.274,313.156 95.282 C 312.741 95.285,312.136 95.467,311.811 95.687 M324.961 97.441 C 325.270 98.091,326.197 99.242,327.020 100.000 L 328.516 101.378 326.955 99.580 C 326.096 98.592,325.170 97.440,324.896 97.021 C 324.622 96.603,324.651 96.791,324.961 97.441 M298.831 97.097 C 298.808 97.961,299.901 98.524,300.668 98.044 C 301.304 97.646,301.289 97.624,300.521 97.833 C 299.938 97.992,299.534 97.841,299.254 97.360 C 299.028 96.971,298.837 96.853,298.831 97.097 M213.058 100.394 C 213.016 101.368,212.890 102.608,212.779 103.150 L 212.576 104.134 212.999 103.165 C 213.232 102.632,213.357 101.391,213.278 100.409 L 213.134 98.622 213.058 100.394 M329.640 104.921 C 329.643 106.004,329.720 106.400,329.810 105.802 C 329.901 105.203,329.898 104.317,329.805 103.833 C 329.711 103.349,329.637 103.839,329.640 104.921 M211.091 106.496 C 210.446 107.687,210.082 108.560,210.282 108.436 C 210.687 108.186,212.712 104.331,212.438 104.331 C 212.342 104.331,211.736 105.305,211.091 106.496 M354.626 105.918 C 355.113 106.114,355.512 106.486,355.512 106.746 C 355.512 107.005,355.626 107.104,355.765 106.965 C 356.149 106.581,355.109 105.508,354.381 105.537 C 353.947 105.554,354.027 105.677,354.626 105.918 M344.882 106.693 C 343.559 107.117,344.988 107.117,346.654 106.693 C 347.714 106.423,347.734 106.392,346.850 106.385 C 346.309 106.381,345.423 106.520,344.882 106.693 M329.540 108.121 C 329.516 108.995,330.667 109.495,332.353 109.345 L 334.055 109.193 332.205 109.124 C 330.909 109.076,330.234 108.848,329.953 108.366 C 329.732 107.987,329.546 107.877,329.540 108.121 M208.478 110.861 C 208.111 111.421,207.879 111.947,207.962 112.030 C 208.044 112.113,208.423 111.654,208.803 111.012 C 209.651 109.575,209.398 109.458,208.478 110.861 M355.209 111.024 C 355.209 111.781,355.290 112.092,355.389 111.713 C 355.489 111.334,355.489 110.714,355.389 110.335 C 355.290 109.956,355.209 110.266,355.209 111.024 M207.973 112.992 C 208.062 113.325,208.633 113.610,209.282 113.645 C 210.273 113.699,210.296 113.680,209.449 113.507 C 208.907 113.397,208.318 113.103,208.139 112.854 C 207.922 112.552,207.867 112.597,207.973 112.992 M217.396 115.945 C 217.867 116.486,218.313 116.929,218.387 116.929 C 218.461 116.929,218.232 116.486,217.877 115.945 C 217.522 115.404,217.077 114.961,216.886 114.961 C 216.696 114.961,216.926 115.404,217.396 115.945 M355.364 116.354 C 355.229 116.706,355.140 117.555,355.167 118.241 C 355.208 119.279,355.266 119.191,355.511 117.717 C 355.824 115.833,355.767 115.304,355.364 116.354 M214.744 123.195 C 214.538 123.393,213.927 123.635,213.386 123.732 L 212.402 123.909 213.436 123.962 C 214.005 123.992,214.691 123.750,214.961 123.425 C 215.496 122.780,215.344 122.617,214.744 123.195 M355.364 123.440 C 355.229 123.792,355.136 124.464,355.158 124.934 C 355.184 125.473,355.318 125.282,355.522 124.412 C 355.866 122.949,355.772 122.375,355.364 123.440 M354.473 126.575 C 354.074 127.614,354.642 128.350,355.795 128.287 L 356.890 128.228 355.767 128.061 C 354.821 127.919,354.673 127.742,354.827 126.938 C 355.030 125.876,354.823 125.663,354.473 126.575 M357.972 129.283 C 359.199 130.409,359.621 136.215,358.563 137.402 C 358.144 137.872,358.174 137.876,358.760 137.433 C 360.173 136.363,359.737 130.270,358.169 129.179 L 356.890 128.289 357.972 129.283 M354.757 139.138 C 354.245 139.684,353.945 140.395,354.053 140.811 C 354.226 141.484,354.243 141.481,354.285 140.773 C 354.310 140.354,354.716 139.601,355.187 139.100 C 355.658 138.599,355.954 138.189,355.846 138.189 C 355.738 138.189,355.248 138.616,354.757 139.138 M202.608 141.944 C 202.473 142.296,202.380 142.968,202.403 143.438 C 202.428 143.977,202.562 143.785,202.766 142.916 C 203.110 141.453,203.016 140.879,202.608 141.944 M203.428 148.052 C 203.551 149.015,203.716 149.877,203.794 149.967 C 204.116 150.336,203.897 147.397,203.564 146.871 C 203.331 146.502,203.283 146.919,203.428 148.052 M356.062 149.935 C 356.193 150.147,357.205 150.970,358.310 151.764 C 359.414 152.558,360.211 153.034,360.080 152.821 C 359.948 152.609,358.937 151.786,357.832 150.992 C 356.727 150.198,355.931 149.722,356.062 149.935 M204.724 151.210 C 205.266 151.732,206.019 152.490,206.398 152.894 C 206.777 153.299,207.087 153.449,207.087 153.226 C 207.087 153.004,206.334 152.246,205.413 151.542 C 204.493 150.838,204.183 150.688,204.724 151.210 M221.086 154.146 C 220.104 154.890,220.468 154.885,221.904 154.136 C 222.524 153.813,222.766 153.553,222.441 153.558 C 222.116 153.564,221.506 153.828,221.086 154.146 M210.743 155.803 C 211.996 155.882,213.945 155.881,215.073 155.802 C 216.202 155.722,215.177 155.658,212.795 155.659 C 210.413 155.660,209.490 155.725,210.743 155.803 M228.204 161.418 C 228.883 162.176,229.712 163.338,230.046 164.000 C 230.933 165.764,234.860 168.819,237.500 169.798 C 238.945 170.335,238.097 169.649,235.925 168.525 C 233.302 167.168,231.081 165.243,230.209 163.573 C 229.873 162.929,229.006 161.870,228.283 161.221 L 226.969 160.041 228.204 161.418 M357.869 167.253 C 356.415 169.403,356.419 169.733,357.877 167.797 C 358.577 166.866,359.082 166.038,358.999 165.955 C 358.917 165.872,358.408 166.456,357.869 167.253 M347.502 169.587 C 347.401 169.749,347.817 169.882,348.425 169.882 C 349.033 169.882,349.449 169.749,349.349 169.587 C 349.248 169.424,348.833 169.291,348.425 169.291 C 348.018 169.291,347.602 169.424,347.502 169.587 M239.541 170.652 C 240.310 170.991,240.997 171.805,241.594 173.081 C 242.088 174.136,242.498 174.700,242.506 174.334 C 242.513 173.968,242.365 173.573,242.177 173.457 C 241.988 173.340,241.734 172.743,241.611 172.130 C 241.398 171.067,239.991 170.034,238.859 170.111 C 238.599 170.128,238.906 170.372,239.541 170.652 M356.693 170.338 C 356.693 170.553,357.180 171.158,357.776 171.683 L 358.858 172.638 357.874 171.457 C 357.333 170.807,356.845 170.202,356.791 170.112 C 356.737 170.021,356.693 170.123,356.693 170.338 M343.799 171.649 C 343.095 172.078,342.520 172.515,342.520 172.619 C 342.520 172.723,343.140 172.442,343.898 171.995 C 344.656 171.548,345.276 171.111,345.276 171.024 C 345.276 170.772,345.151 170.825,343.799 171.649 M357.812 174.409 C 356.813 175.761,356.115 175.881,354.952 174.902 C 354.135 174.213,354.135 174.213,354.884 175.098 C 355.937 176.342,356.826 176.204,358.044 174.606 C 358.622 173.848,359.003 173.228,358.890 173.228 C 358.777 173.228,358.292 173.760,357.812 174.409 M325.394 176.772 C 323.854 177.791,324.402 177.792,326.073 176.773 C 326.782 176.341,327.185 175.988,326.969 175.988 C 326.752 175.989,326.043 176.341,325.394 176.772 M245.528 178.930 C 247.662 180.459,249.224 181.406,248.622 180.806 C 247.715 179.901,244.396 177.559,244.021 177.559 C 243.798 177.559,244.476 178.176,245.528 178.930 M316.486 181.112 C 315.917 181.537,314.974 182.550,314.390 183.363 L 313.329 184.843 314.539 183.479 C 315.204 182.729,316.236 181.717,316.831 181.230 C 318.162 180.139,317.905 180.052,316.486 181.112 M250.000 181.547 C 251.966 182.392,252.164 182.583,252.049 183.512 C 251.957 184.259,252.015 184.329,252.339 183.858 C 253.225 182.567,252.616 181.857,250.197 181.364 C 249.069 181.134,249.060 181.142,250.000 181.547 M251.600 188.720 C 251.586 189.120,252.107 189.945,252.758 190.553 C 253.557 191.299,253.867 191.894,253.712 192.384 C 253.505 193.044,253.528 193.041,253.966 192.352 C 254.379 191.701,254.303 191.478,253.427 190.777 C 252.866 190.328,252.231 189.518,252.016 188.976 C 251.718 188.226,251.619 188.165,251.600 188.720 M202.703 191.773 C 198.384 195.956,196.192 196.598,191.461 195.068 C 187.561 193.806,187.379 193.683,187.051 192.081 C 186.665 190.192,185.670 190.171,183.928 192.016 C 182.567 193.458,181.751 194.019,177.680 196.314 C 175.541 197.519,173.686 197.504,167.662 196.232 C 162.496 195.142,161.227 195.196,160.805 196.526 C 160.595 197.188,160.788 197.562,161.664 198.187 C 163.789 199.703,164.964 201.267,165.587 203.410 C 165.929 204.588,166.459 206.030,166.764 206.615 C 167.069 207.199,167.319 208.244,167.320 208.937 C 167.322 209.630,167.516 211.099,167.752 212.200 C 168.350 214.985,168.041 215.244,163.929 215.413 C 159.892 215.579,159.449 215.963,159.449 219.295 C 159.449 220.514,159.170 222.451,158.828 223.601 C 158.419 224.979,158.294 226.319,158.461 227.537 C 158.667 229.030,158.522 229.820,157.704 231.670 C 157.148 232.927,156.693 234.130,156.693 234.342 C 156.693 234.554,156.250 235.610,155.709 236.688 C 154.369 239.355,154.425 239.764,156.127 239.764 C 158.748 239.764,161.792 241.575,162.660 243.652 C 163.583 245.860,163.466 245.665,166.169 249.472 C 168.714 253.055,169.161 253.886,172.378 261.038 C 174.196 265.079,175.996 265.612,177.298 262.495 C 177.940 260.958,179.825 259.270,181.839 258.429 C 185.305 256.981,188.026 253.160,188.407 249.204 C 188.867 244.434,188.820 244.488,192.478 244.488 C 197.444 244.488,197.901 243.321,193.996 240.607 C 191.189 238.657,187.416 234.227,187.410 232.874 C 187.387 228.201,193.265 223.583,194.621 227.208 L 195.079 228.432 198.228 228.229 C 203.572 227.886,204.268 227.532,204.409 225.085 C 204.524 223.095,204.566 223.028,205.778 222.910 C 207.564 222.737,207.899 222.158,207.367 220.165 C 207.031 218.906,207.033 218.188,207.375 217.283 C 208.150 215.229,206.806 213.272,202.968 210.869 C 201.330 209.843,200.964 209.392,200.700 208.071 C 200.526 207.205,200.012 205.568,199.558 204.434 C 198.489 201.766,198.766 200.730,200.884 199.489 C 201.806 198.949,202.897 198.134,203.310 197.679 C 204.199 196.695,204.582 196.651,205.371 197.441 C 207.951 200.020,212.464 196.407,211.435 192.586 C 210.966 190.844,211.318 191.037,205.852 189.524 C 205.448 189.412,204.276 190.249,202.703 191.773 M253.796 198.508 C 253.663 199.004,253.571 199.852,253.592 200.394 C 253.614 200.974,253.770 200.660,253.972 199.631 C 254.334 197.787,254.206 196.975,253.796 198.508 M278.224 199.508 C 278.935 200.212,279.740 200.782,280.014 200.775 C 280.288 200.769,280.157 200.568,279.724 200.329 C 279.291 200.090,278.486 199.520,277.935 199.061 C 277.383 198.603,277.513 198.804,278.224 199.508 M298.820 199.014 C 298.313 199.555,297.972 200.063,298.063 200.143 C 298.154 200.224,298.640 199.782,299.144 199.161 C 300.271 197.771,300.073 197.681,298.820 199.014 M280.741 200.907 C 280.832 200.972,281.437 201.337,282.087 201.717 L 283.268 202.409 282.338 201.598 C 281.827 201.152,281.222 200.787,280.993 200.787 C 280.764 200.787,280.651 200.841,280.741 200.907 M253.543 201.820 C 253.543 202.947,255.036 203.585,257.338 203.442 L 259.646 203.298 257.207 203.224 C 255.183 203.162,254.665 203.001,254.156 202.275 C 253.819 201.793,253.543 201.589,253.543 201.820 M261.909 202.649 C 262.721 202.734,264.050 202.734,264.862 202.649 C 265.674 202.564,265.010 202.495,263.386 202.495 C 261.762 202.495,261.097 202.564,261.909 202.649 M295.079 203.396 C 294.371 203.998,294.226 204.238,294.717 203.993 C 295.439 203.635,296.793 202.339,296.406 202.376 C 296.326 202.384,295.728 202.843,295.079 203.396 M287.768 205.676 C 288.624 206.707,289.702 206.799,290.803 205.933 C 291.372 205.485,291.696 205.118,291.521 205.118 C 291.347 205.118,290.866 205.424,290.454 205.797 C 289.743 206.440,289.639 206.439,288.489 205.779 C 287.568 205.250,287.394 205.225,287.768 205.676 M108.932 234.709 C 108.174 235.274,106.808 235.655,104.601 235.915 C 102.828 236.124,99.695 236.523,97.638 236.801 C 94.420 237.236,93.691 237.225,92.421 236.721 C 91.319 236.283,90.169 236.200,87.893 236.393 C 84.757 236.658,83.341 236.684,81.315 236.515 C 80.369 236.436,79.998 236.663,79.346 237.721 C 74.861 245.003,73.114 246.350,69.731 245.133 C 68.590 244.723,67.417 244.568,66.638 244.724 C 64.849 245.081,63.706 244.694,61.762 243.069 C 57.936 239.873,55.563 240.946,57.943 244.796 L 58.799 246.181 57.904 246.905 C 57.100 247.556,56.926 247.570,56.173 247.043 C 55.154 246.329,53.955 246.279,53.886 246.949 C 53.858 247.219,53.814 248.593,53.787 250.000 C 53.731 253.030,51.894 253.960,51.064 251.378 C 50.353 249.165,49.857 248.903,46.535 248.982 C 44.868 249.022,43.117 249.267,42.644 249.527 C 41.636 250.082,39.802 250.137,39.012 249.637 C 38.410 249.256,37.402 249.492,37.402 250.014 C 37.402 250.191,38.440 250.968,39.710 251.739 C 42.210 253.257,45.018 256.049,45.466 257.460 C 45.620 257.945,46.260 259.104,46.889 260.035 C 48.119 261.858,48.295 262.946,47.576 264.288 C 47.326 264.756,46.984 265.675,46.818 266.329 C 46.651 266.984,46.123 268.535,45.645 269.776 L 44.776 272.032 46.282 273.713 C 48.522 276.214,48.734 276.302,53.057 276.537 C 56.815 276.741,57.112 276.700,58.150 275.841 C 58.756 275.340,59.606 274.738,60.039 274.504 C 60.472 274.271,61.097 273.317,61.426 272.384 C 62.370 269.717,63.608 269.240,66.223 270.537 C 69.919 272.369,72.178 272.277,73.719 270.230 C 75.347 268.068,77.327 268.006,78.024 270.095 C 78.101 270.328,79.158 270.556,80.371 270.603 C 83.396 270.718,83.858 271.195,83.858 274.192 C 83.858 277.535,84.699 278.333,88.662 278.750 C 91.494 279.048,94.030 279.776,95.558 280.730 C 96.711 281.451,97.945 280.964,100.691 278.704 L 103.154 276.678 107.238 276.956 C 112.014 277.282,113.228 277.844,114.621 280.378 C 115.299 281.609,115.844 282.120,116.574 282.205 C 118.782 282.463,119.092 279.662,116.977 278.568 C 115.128 277.612,114.434 275.578,114.347 270.866 C 114.305 268.593,114.052 265.677,113.784 264.388 C 112.950 260.377,114.248 254.330,116.286 252.727 C 117.748 251.577,117.593 251.043,115.389 249.629 C 112.480 247.762,112.229 246.377,114.862 246.729 C 116.417 246.937,116.752 246.691,119.195 243.549 C 121.322 240.815,119.914 236.220,116.949 236.220 C 116.073 236.220,115.239 235.966,114.942 235.607 C 113.539 233.917,110.586 233.476,108.932 234.709 " stroke="none" fill="#e7e186" fill-rule="evenodd"></path><path id="path3" d="M74.375 271.161 C 73.063 273.192,69.021 273.542,66.458 271.846 C 64.434 270.507,63.305 270.669,62.804 272.371 C 62.563 273.190,61.613 274.368,60.264 275.521 L 58.108 277.362 52.971 277.235 C 47.649 277.103,47.454 277.050,46.697 275.525 C 46.100 274.324,44.673 274.115,44.120 275.149 C 43.496 276.316,44.913 278.450,47.280 279.906 C 49.539 281.296,50.604 282.855,51.182 285.620 C 51.794 288.541,53.156 290.748,54.347 290.748 C 56.071 290.748,56.299 291.188,56.299 294.502 L 56.299 297.618 53.937 299.867 C 51.207 302.466,51.126 302.808,52.854 304.424 C 55.027 306.456,58.371 307.874,60.990 307.874 C 62.730 307.874,63.780 309.363,63.780 311.832 C 63.780 314.050,63.830 314.169,64.862 314.395 C 66.660 314.789,66.941 314.922,67.092 315.444 C 67.171 315.719,67.500 316.831,67.821 317.913 C 68.495 320.182,68.348 320.755,66.340 323.673 C 64.651 326.129,64.496 325.670,68.167 329.088 C 71.018 331.742,72.448 332.441,73.047 331.472 C 73.539 330.675,75.264 330.277,76.533 330.666 C 77.206 330.873,78.730 331.139,79.921 331.259 C 84.659 331.734,88.146 332.281,91.339 333.048 C 93.179 333.491,95.162 333.854,95.744 333.856 C 97.240 333.859,97.356 334.266,96.836 337.692 L 96.376 340.729 97.893 342.008 C 98.727 342.711,100.102 343.513,100.948 343.789 C 101.794 344.065,102.608 344.557,102.755 344.882 C 102.903 345.207,103.533 346.447,104.156 347.638 C 105.140 349.518,105.290 350.243,105.302 353.142 L 105.315 356.480 108.821 356.587 C 112.011 356.684,112.554 356.821,114.849 358.104 L 117.371 359.514 119.828 358.444 C 123.984 356.633,124.629 355.929,124.044 353.841 C 123.623 352.336,123.650 351.891,124.245 350.558 C 124.819 349.271,124.941 347.710,124.983 341.142 C 125.017 335.857,125.201 332.779,125.543 331.781 C 125.959 330.567,125.959 329.933,125.543 328.311 C 124.935 325.938,125.226 325.609,127.953 325.591 C 130.526 325.573,130.863 325.247,130.446 323.179 C 130.026 321.096,130.195 319.685,130.864 319.685 C 131.923 319.685,133.184 317.812,132.905 316.654 C 132.759 316.047,132.537 315.108,132.412 314.567 C 132.037 312.941,130.295 311.411,126.969 309.787 C 123.111 307.903,120.694 305.774,121.047 304.571 C 122.176 300.722,121.817 299.461,119.360 298.645 C 117.127 297.903,114.887 295.764,114.714 294.208 C 114.353 290.971,113.949 289.959,112.704 289.177 C 112.010 288.742,111.333 288.063,111.198 287.668 C 111.063 287.274,110.715 287.042,110.425 287.153 C 110.136 287.264,109.266 287.474,108.494 287.619 L 107.089 287.882 107.321 286.559 C 107.449 285.832,107.722 284.678,107.928 283.996 C 108.134 283.314,108.182 282.277,108.035 281.690 C 107.697 280.344,108.395 279.850,110.176 280.176 C 112.842 280.664,111.546 279.053,108.659 278.289 C 104.735 277.250,103.576 277.346,101.995 278.840 C 98.559 282.087,96.750 282.622,94.308 281.112 C 93.557 280.649,91.791 280.188,89.930 279.970 C 84.134 279.293,82.431 278.016,82.850 274.660 C 83.193 271.919,82.414 271.188,79.517 271.531 C 77.810 271.733,77.582 271.661,76.965 270.719 C 76.050 269.322,75.503 269.416,74.375 271.161 " stroke="none" fill="#96d4fa" fill-rule="evenodd"></path><path id="path4" d="M242.815 40.042 C 243.302 40.135,244.099 40.135,244.587 40.042 C 245.074 39.948,244.675 39.871,243.701 39.871 C 242.726 39.871,242.328 39.948,242.815 40.042 M287.258 41.210 C 287.503 41.389,287.802 41.890,287.921 42.323 C 288.092 42.944,288.122 42.909,288.065 42.157 C 288.025 41.632,287.726 41.132,287.402 41.044 C 287.011 40.939,286.963 40.995,287.258 41.210 M252.726 43.602 L 251.772 44.685 252.756 43.831 C 253.297 43.361,254.272 42.900,254.921 42.807 L 256.102 42.638 254.891 42.579 C 254.018 42.536,253.414 42.822,252.726 43.602 M276.802 43.701 C 276.772 44.672,276.721 44.687,272.950 44.809 C 270.848 44.878,268.855 45.096,268.521 45.295 C 268.093 45.549,268.262 45.599,269.094 45.465 C 269.744 45.360,271.781 45.216,273.622 45.145 C 277.040 45.013,277.628 44.678,277.030 43.201 C 276.922 42.935,276.820 43.159,276.802 43.701 M288.481 45.124 C 288.594 46.182,288.752 47.121,288.832 47.211 C 289.146 47.568,288.942 44.257,288.619 43.746 C 288.408 43.413,288.354 43.948,288.481 45.124 M229.921 45.689 C 229.921 45.917,229.257 46.734,228.445 47.505 C 227.052 48.826,227.042 48.854,228.254 47.996 C 229.654 47.006,230.971 45.276,230.324 45.276 C 230.103 45.276,229.921 45.462,229.921 45.689 M249.311 45.547 C 249.690 45.646,250.310 45.646,250.689 45.547 C 251.068 45.448,250.758 45.367,250.000 45.367 C 249.242 45.367,248.932 45.448,249.311 45.547 M265.157 46.480 C 266.182 46.890,267.622 46.930,267.849 46.555 C 267.948 46.393,267.206 46.239,266.199 46.213 C 264.927 46.180,264.610 46.261,265.157 46.480 M291.430 57.480 C 291.430 58.238,291.511 58.548,291.610 58.169 C 291.709 57.790,291.709 57.170,291.610 56.791 C 291.511 56.412,291.430 56.722,291.430 57.480 M230.414 60.039 C 230.419 60.906,230.499 61.213,230.593 60.724 C 230.688 60.234,230.684 59.525,230.585 59.149 C 230.487 58.773,230.410 59.173,230.414 60.039 M292.944 67.020 C 292.926 67.426,292.475 67.806,291.831 67.959 C 290.353 68.310,289.361 69.247,289.416 70.238 C 289.460 71.032,289.469 71.033,289.655 70.276 C 289.930 69.158,290.541 68.504,291.312 68.504 C 292.304 68.504,293.446 67.529,293.195 66.895 C 293.032 66.482,292.968 66.514,292.944 67.020 M219.123 68.729 C 218.279 69.573,218.336 69.956,219.193 69.196 C 219.572 68.860,220.236 68.499,220.669 68.393 C 221.402 68.215,221.397 68.198,220.599 68.156 C 220.127 68.131,219.463 68.389,219.123 68.729 M290.213 73.622 C 290.213 73.947,290.365 74.567,290.551 75.000 C 290.764 75.496,290.890 75.569,290.890 75.197 C 290.890 74.872,290.737 74.252,290.551 73.819 C 290.338 73.323,290.213 73.250,290.213 73.622 M214.165 74.616 C 213.891 74.946,213.781 75.330,213.920 75.469 C 214.059 75.608,214.173 75.509,214.173 75.250 C 214.173 74.990,214.572 74.618,215.059 74.422 C 215.659 74.181,215.738 74.058,215.304 74.041 C 214.952 74.027,214.439 74.286,214.165 74.616 M287.453 85.286 C 287.381 87.002,287.992 87.347,291.345 87.481 L 294.269 87.598 295.160 89.173 C 295.649 90.039,296.053 90.553,296.057 90.314 C 296.085 88.414,294.284 87.206,291.128 87.008 L 287.992 86.811 287.749 85.433 L 287.505 84.055 287.453 85.286 M211.940 87.992 C 211.942 89.508,212.013 90.080,212.098 89.263 C 212.184 88.446,212.182 87.206,212.095 86.507 C 212.008 85.808,211.938 86.476,211.940 87.992 M211.480 92.570 C 211.438 93.519,211.649 94.179,212.106 94.538 C 212.706 95.009,212.736 95.002,212.335 94.487 C 212.082 94.161,211.801 93.275,211.709 92.518 L 211.543 91.142 211.480 92.570 M297.307 91.929 C 297.666 92.362,298.040 93.159,298.139 93.701 L 298.318 94.685 298.372 93.663 C 298.404 93.040,298.080 92.349,297.539 91.892 C 296.661 91.148,296.659 91.148,297.307 91.929 M317.007 93.406 C 316.520 93.893,315.550 94.514,314.852 94.787 L 313.583 95.283 314.764 95.059 C 315.716 94.878,318.807 92.520,318.092 92.520 C 317.982 92.520,317.493 92.918,317.007 93.406 M213.127 96.969 L 213.065 99.016 213.377 97.244 C 213.548 96.270,213.576 95.348,213.439 95.197 C 213.301 95.045,213.161 95.843,213.127 96.969 M310.433 95.669 C 309.343 95.947,309.328 95.973,310.236 96.010 C 310.778 96.033,311.486 95.879,311.811 95.669 C 312.481 95.236,312.135 95.236,310.433 95.669 M326.772 99.409 C 327.506 100.167,328.196 100.787,328.304 100.787 C 328.412 100.787,327.900 100.167,327.165 99.409 C 326.431 98.652,325.741 98.031,325.633 98.031 C 325.525 98.031,326.037 98.652,326.772 99.409 M352.264 105.396 C 352.751 105.490,353.548 105.490,354.035 105.396 C 354.523 105.302,354.124 105.225,353.150 105.225 C 352.175 105.225,351.777 105.302,352.264 105.396 M343.504 106.693 C 342.501 107.124,343.536 107.124,344.882 106.693 C 345.673 106.440,345.712 106.375,345.079 106.366 C 344.646 106.360,343.937 106.507,343.504 106.693 M355.965 107.530 C 355.932 108.098,355.818 109.161,355.710 109.892 L 355.514 111.220 355.929 109.899 C 356.157 109.172,356.271 108.109,356.183 107.537 L 356.023 106.496 355.965 107.530 M209.943 107.972 C 209.386 108.676,208.602 110.236,208.806 110.236 C 208.900 110.236,209.343 109.616,209.790 108.858 C 210.603 107.481,210.678 107.044,209.943 107.972 M333.858 108.661 C 333.067 108.915,333.028 108.979,333.661 108.988 C 334.094 108.995,334.803 108.848,335.236 108.661 C 336.239 108.230,335.204 108.230,333.858 108.661 M355.543 111.861 C 355.526 112.214,355.778 112.723,356.102 112.992 C 356.427 113.262,356.717 113.948,356.747 114.517 C 356.797 115.489,356.811 115.496,356.975 114.633 C 357.071 114.128,356.893 113.419,356.579 113.058 C 356.265 112.697,355.911 112.136,355.791 111.811 C 355.610 111.317,355.569 111.326,355.543 111.861 M207.319 112.147 C 207.205 112.331,207.355 112.815,207.653 113.222 C 208.152 113.905,208.178 113.879,207.988 112.886 C 207.769 111.742,207.650 111.611,207.319 112.147 M209.547 114.051 C 209.926 114.150,210.546 114.150,210.925 114.051 C 211.304 113.952,210.994 113.871,210.236 113.871 C 209.478 113.871,209.168 113.952,209.547 114.051 M355.619 118.110 C 355.619 119.085,355.696 119.483,355.790 118.996 C 355.883 118.509,355.883 117.712,355.790 117.224 C 355.696 116.737,355.619 117.136,355.619 118.110 M210.756 129.921 C 210.756 131.329,210.827 131.905,210.915 131.201 C 211.002 130.497,211.002 129.345,210.915 128.642 C 210.827 127.938,210.756 128.514,210.756 129.921 M359.376 133.263 C 359.493 136.705,359.446 136.965,358.600 137.558 C 358.104 137.905,357.888 138.189,358.119 138.189 C 359.532 138.189,360.825 130.579,359.547 129.784 C 359.385 129.683,359.308 131.249,359.376 133.263 M206.299 138.601 C 205.868 138.893,206.027 138.929,206.890 138.736 C 208.337 138.412,208.652 138.187,207.644 138.195 C 207.229 138.198,206.624 138.381,206.299 138.601 M355.462 138.878 C 354.992 139.477,354.998 139.508,355.512 139.117 C 355.837 138.870,356.457 138.580,356.890 138.474 C 357.638 138.290,357.635 138.278,356.840 138.235 C 356.379 138.210,355.759 138.499,355.462 138.878 M203.715 140.256 L 202.559 141.535 203.935 140.354 C 204.692 139.705,205.386 139.129,205.477 139.075 C 205.568 139.021,205.469 138.976,205.257 138.976 C 205.045 138.976,204.351 139.552,203.715 140.256 M351.260 144.961 C 350.419 145.802,350.751 146.403,352.657 147.491 C 353.686 148.078,354.879 148.838,355.308 149.181 C 356.037 149.762,356.053 149.758,355.553 149.111 C 355.258 148.731,354.154 147.949,353.099 147.375 C 351.134 146.306,350.825 145.789,351.654 144.961 C 351.913 144.701,352.037 144.488,351.929 144.488 C 351.821 144.488,351.520 144.701,351.260 144.961 M359.547 152.196 C 360.395 153.203,360.409 153.701,359.624 154.899 C 359.159 155.608,359.127 155.903,359.488 156.127 C 359.766 156.298,359.862 156.256,359.719 156.024 C 359.584 155.806,359.728 155.292,360.039 154.881 C 360.848 153.813,360.760 152.988,359.744 152.128 C 358.859 151.379,358.859 151.379,359.547 152.196 M206.718 154.007 C 206.646 155.902,214.126 157.277,217.414 155.974 C 217.789 155.825,216.084 155.767,213.626 155.845 C 208.843 155.997,207.695 155.709,207.089 154.207 C 206.835 153.575,206.736 153.522,206.718 154.007 M226.723 160.116 C 226.969 160.591,227.346 161.089,227.561 161.222 C 228.150 161.585,228.032 162.205,227.375 162.205 C 227.057 162.205,226.885 162.437,226.994 162.721 C 227.103 163.004,226.788 163.846,226.293 164.591 C 225.798 165.335,225.142 166.432,224.835 167.028 C 224.528 167.623,224.129 168.110,223.949 168.110 C 223.769 168.110,223.622 168.291,223.622 168.512 C 223.622 169.824,221.567 172.111,220.604 171.869 C 219.284 171.538,218.504 172.251,218.504 173.788 C 218.504 175.645,216.039 177.083,215.582 175.492 C 215.504 175.221,215.186 174.137,214.874 173.083 L 214.308 171.165 213.802 172.492 C 213.524 173.222,213.067 174.335,212.787 174.965 C 212.181 176.330,212.335 176.888,213.853 178.842 C 215.045 180.376,215.031 181.102,213.810 181.102 C 213.030 181.102,212.840 181.976,212.357 187.764 C 212.107 190.757,211.571 191.756,210.846 190.582 C 210.673 190.302,205.840 188.976,204.994 188.976 C 204.903 188.976,203.606 190.188,202.113 191.670 C 198.279 195.474,196.325 196.119,192.377 194.883 C 187.933 193.492,187.615 193.282,187.478 191.655 C 187.292 189.441,184.415 189.687,183.357 192.007 C 183.097 192.578,181.516 193.700,179.230 194.936 C 174.983 197.233,174.327 197.276,167.351 195.713 C 162.805 194.695,161.725 194.677,160.888 195.602 C 159.898 196.696,160.076 197.928,161.319 198.577 C 163.091 199.503,164.458 201.250,165.085 203.394 C 165.410 204.503,165.937 205.921,166.257 206.544 C 166.598 207.209,166.898 209.142,166.982 211.220 L 167.126 214.764 163.691 214.970 C 159.532 215.219,159.101 215.602,159.037 219.094 C 158.973 222.651,158.328 224.303,156.528 225.526 C 155.679 226.103,154.173 227.619,153.181 228.894 C 150.749 232.022,150.417 232.197,148.525 231.344 C 147.438 230.854,146.554 230.729,145.536 230.919 C 143.774 231.250,142.442 229.105,143.274 227.277 C 145.408 222.595,136.268 220.983,133.993 225.641 C 133.742 226.155,132.813 228.125,131.929 230.020 C 131.015 231.977,130.080 233.465,129.763 233.465 C 128.938 233.465,127.253 231.288,126.732 229.550 C 125.338 224.896,121.192 225.137,121.839 229.835 C 122.033 231.247,121.928 232.194,121.455 233.309 C 120.895 234.629,120.867 235.253,121.252 237.795 C 121.916 242.176,121.924 242.216,122.499 243.634 C 123.127 245.182,122.361 246.063,120.385 246.063 C 118.834 246.063,118.674 245.247,119.877 243.473 C 121.957 240.409,120.323 235.827,117.152 235.827 C 116.433 235.827,115.651 235.594,115.415 235.309 C 115.179 235.025,114.098 234.376,113.013 233.868 L 111.041 232.944 108.572 234.176 C 105.972 235.473,98.899 236.519,94.291 236.288 C 90.122 236.078,80.482 235.944,79.880 236.087 C 79.533 236.169,78.825 237.075,78.307 238.099 C 75.678 243.292,73.720 245.073,71.063 244.687 C 70.197 244.561,68.159 244.328,66.535 244.170 C 63.833 243.906,61.811 243.163,61.811 242.433 C 61.811 242.273,60.912 241.628,59.813 241.001 L 57.814 239.859 59.124 238.335 C 59.844 237.497,60.682 236.616,60.986 236.378 C 61.356 236.088,61.460 235.547,61.299 234.741 C 61.166 234.079,61.215 232.988,61.407 232.318 C 61.700 231.298,61.600 230.912,60.800 229.961 C 60.273 229.335,59.843 228.549,59.843 228.214 C 59.843 227.880,59.665 227.496,59.449 227.362 C 59.232 227.228,59.055 226.843,59.055 226.505 C 59.055 226.167,58.081 224.500,56.890 222.801 C 55.699 221.101,54.724 219.544,54.724 219.341 C 54.724 219.138,54.402 219.056,54.008 219.159 C 53.614 219.262,53.061 219.068,52.779 218.728 C 52.089 217.897,51.837 217.940,50.417 219.135 C 49.520 219.890,48.939 220.095,48.214 219.913 C 47.390 219.707,46.634 220.173,43.590 222.761 C 38.893 226.756,38.491 226.971,37.588 225.973 C 36.062 224.287,35.752 225.879,37.229 227.814 C 37.974 228.790,38.687 230.062,38.815 230.641 C 39.617 234.277,40.756 236.984,41.795 237.720 C 42.431 238.171,43.915 240.120,46.654 244.101 C 47.087 244.730,47.751 245.252,48.130 245.260 C 48.910 245.278,49.021 244.848,48.397 244.224 C 47.991 243.818,49.622 242.126,50.418 242.126 C 51.001 242.126,52.393 244.235,52.178 244.793 C 52.051 245.126,52.271 245.428,52.727 245.548 C 53.312 245.701,53.419 245.938,53.186 246.568 C 53.019 247.019,53.047 248.161,53.248 249.105 C 53.689 251.170,53.445 251.969,52.375 251.969 C 51.848 251.969,51.575 251.710,51.575 251.211 C 51.575 248.356,47.104 247.291,42.444 249.037 C 41.342 249.450,40.699 249.480,39.780 249.159 C 36.020 247.849,35.656 250.295,39.334 252.160 C 41.261 253.137,44.320 256.116,44.913 257.594 C 45.192 258.289,45.831 259.475,46.332 260.229 C 47.552 262.064,46.941 266.178,44.831 270.329 C 44.199 271.572,44.755 274.284,45.693 274.530 C 46.108 274.638,46.616 275.170,46.821 275.711 C 47.349 277.098,47.298 277.085,52.979 277.231 L 58.108 277.362 60.264 275.521 C 61.613 274.368,62.563 273.190,62.804 272.371 C 63.305 270.669,64.434 270.507,66.458 271.846 C 69.021 273.542,73.063 273.192,74.375 271.161 C 75.503 269.416,76.050 269.322,76.965 270.719 C 77.582 271.661,77.810 271.733,79.517 271.531 C 82.414 271.188,83.193 271.919,82.850 274.660 C 82.431 278.016,84.134 279.293,89.930 279.970 C 91.791 280.188,93.557 280.649,94.308 281.112 C 96.750 282.622,98.559 282.087,101.995 278.840 C 103.576 277.346,104.735 277.250,108.659 278.289 C 111.611 279.070,112.838 280.669,110.090 280.153 C 108.782 279.908,108.669 279.966,108.470 280.988 C 108.352 281.592,108.081 282.842,107.868 283.765 C 107.371 285.916,107.374 287.120,107.874 286.811 C 108.091 286.677,108.268 286.832,108.268 287.154 C 108.268 287.628,108.512 287.670,109.547 287.373 C 110.408 287.126,110.872 287.143,110.965 287.423 C 111.114 287.869,111.400 288.135,113.091 289.403 C 113.686 289.849,114.173 290.468,114.173 290.777 C 114.173 291.086,114.370 291.339,114.610 291.339 C 114.875 291.339,114.952 291.713,114.806 292.294 C 114.655 292.895,114.786 293.470,115.157 293.841 C 115.482 294.166,115.748 294.857,115.748 295.376 C 115.748 296.589,117.102 297.850,119.200 298.590 C 121.674 299.463,122.577 300.453,122.251 301.935 C 122.105 302.603,121.861 303.150,121.710 303.150 C 121.559 303.150,121.502 303.841,121.582 304.687 C 121.771 306.667,122.985 307.831,126.781 309.671 C 128.400 310.455,130.031 311.371,130.406 311.706 C 131.915 313.052,136.614 311.496,136.614 309.650 C 136.614 308.312,135.811 308.020,131.304 307.716 C 126.746 307.409,126.908 307.508,126.367 304.711 L 125.950 302.559 127.411 301.280 C 129.678 299.294,130.907 299.512,133.165 302.303 C 133.908 303.220,134.934 303.325,137.781 302.776 C 140.162 302.317,140.643 301.569,141.488 297.018 C 141.887 294.869,142.260 292.931,142.318 292.713 C 142.375 292.494,143.241 292.096,144.243 291.828 C 146.187 291.308,146.530 290.585,145.629 288.902 C 145.338 288.357,145.288 286.686,145.477 283.794 C 145.781 279.133,146.140 278.347,147.961 278.346 C 148.541 278.346,150.079 277.843,151.378 277.228 C 154.461 275.770,160.722 275.215,163.436 276.161 C 166.631 277.273,167.323 276.927,167.323 274.216 C 167.323 272.707,169.585 269.561,171.724 268.094 C 172.443 267.601,173.563 266.714,174.213 266.123 C 174.862 265.531,175.748 264.932,176.181 264.792 C 176.614 264.651,177.411 263.613,177.953 262.485 C 178.792 260.735,179.280 260.256,181.261 259.230 C 185.987 256.783,188.632 253.200,188.955 248.807 C 189.240 244.927,189.226 244.939,193.502 244.800 C 198.489 244.638,198.448 244.314,192.752 238.893 L 188.189 234.551 188.189 232.243 C 188.189 227.966,192.930 224.438,194.293 227.700 C 194.916 229.190,195.835 229.261,201.682 228.273 C 204.556 227.788,204.586 227.755,204.815 224.817 C 204.909 223.614,205.078 223.421,206.252 223.183 C 207.858 222.857,208.368 222.180,207.998 220.866 C 207.732 219.922,207.719 218.920,207.933 215.964 C 207.997 215.088,207.775 214.322,207.309 213.807 C 206.607 213.032,206.607 213.002,207.328 212.782 C 207.737 212.657,208.514 212.311,209.055 212.012 C 209.596 211.713,210.659 211.176,211.417 210.820 C 214.642 209.301,215.137 209.178,216.531 209.549 C 218.079 209.960,217.873 210.146,220.508 205.963 C 222.209 203.261,222.193 203.267,225.615 204.137 L 226.623 204.394 226.353 202.295 C 226.205 201.141,225.953 199.634,225.794 198.945 C 225.508 197.714,225.543 197.675,228.051 196.503 C 229.977 195.602,230.720 195.018,231.097 194.107 C 231.528 193.066,231.791 192.906,233.023 192.931 C 233.807 192.947,235.002 192.844,235.678 192.703 C 237.054 192.414,237.085 192.440,239.282 195.640 C 241.202 198.437,241.274 198.438,243.324 195.691 C 244.992 193.455,246.411 192.671,247.015 193.649 C 247.132 193.837,248.515 194.118,250.090 194.273 C 251.664 194.428,253.130 194.703,253.347 194.883 C 254.391 195.749,253.683 191.514,252.603 190.434 C 251.774 189.605,251.568 189.095,251.731 188.276 C 252.223 185.807,252.125 182.540,251.551 182.261 C 251.239 182.109,250.282 181.683,249.423 181.313 C 248.564 180.943,247.236 180.149,246.470 179.547 C 245.705 178.946,244.503 178.160,243.799 177.800 C 242.864 177.321,242.520 176.877,242.520 176.146 C 242.520 174.911,240.710 170.866,240.158 170.866 C 237.976 170.866,231.024 165.996,229.761 163.583 C 229.421 162.933,228.498 161.693,227.710 160.827 C 226.922 159.961,226.478 159.641,226.723 160.116 M361.893 161.752 C 361.815 163.254,361.567 164.136,361.129 164.469 C 360.772 164.739,360.669 164.961,360.900 164.961 C 361.860 164.961,363.110 160.202,362.283 159.696 C 362.132 159.603,361.956 160.528,361.893 161.752 M345.965 170.698 C 344.493 171.496,344.582 171.829,346.063 171.063 C 346.713 170.727,347.244 170.368,347.244 170.265 C 347.244 170.012,347.202 170.026,345.965 170.698 M357.725 171.260 C 358.185 171.801,358.658 172.510,358.777 172.835 C 358.962 173.340,358.997 173.336,359.024 172.805 C 359.041 172.464,358.568 171.755,357.972 171.230 L 356.890 170.276 357.725 171.260 M353.150 173.745 C 353.150 173.813,353.725 174.389,354.429 175.025 L 355.709 176.181 354.552 174.902 C 353.474 173.709,353.150 173.441,353.150 173.745 M328.850 176.274 C 329.886 176.355,331.480 176.355,332.394 176.272 C 333.308 176.189,332.461 176.123,330.512 176.124 C 328.563 176.125,327.815 176.193,328.850 176.274 M322.835 177.953 C 322.024 178.212,321.989 178.274,322.638 178.301 C 323.071 178.319,323.691 178.163,324.016 177.953 C 324.706 177.507,324.227 177.507,322.835 177.953 M317.403 180.727 C 317.099 181.214,317.073 181.496,317.332 181.496 C 317.557 181.496,317.846 181.223,317.974 180.889 C 318.329 179.965,317.946 179.857,317.403 180.727 M310.598 189.764 C 310.463 190.572,310.159 190.783,308.906 190.945 C 307.726 191.097,307.154 191.456,306.394 192.520 L 305.410 193.898 306.544 192.615 C 307.371 191.679,308.010 191.332,308.908 191.335 C 310.298 191.339,311.168 190.542,310.926 189.487 C 310.802 188.949,310.723 189.015,310.598 189.764 M208.747 190.331 C 211.462 191.089,212.362 192.929,211.335 195.625 C 210.498 197.826,206.863 198.932,205.371 197.441 C 204.582 196.651,204.199 196.695,203.310 197.679 C 202.897 198.134,201.806 198.949,200.884 199.489 C 198.766 200.730,198.489 201.766,199.558 204.434 C 200.012 205.568,200.526 207.205,200.700 208.071 C 200.964 209.392,201.330 209.843,202.968 210.869 C 206.806 213.272,208.150 215.229,207.375 217.283 C 207.033 218.188,207.031 218.906,207.367 220.165 C 207.899 222.158,207.564 222.737,205.778 222.910 C 204.566 223.028,204.524 223.095,204.409 225.085 C 204.268 227.532,203.572 227.886,198.228 228.229 L 195.079 228.432 194.621 227.208 C 193.265 223.583,187.387 228.201,187.410 232.874 C 187.416 234.227,191.189 238.657,193.996 240.607 C 197.901 243.321,197.444 244.488,192.478 244.488 C 188.820 244.488,188.867 244.434,188.407 249.204 C 188.026 253.160,185.305 256.981,181.839 258.429 C 179.825 259.270,177.940 260.958,177.298 262.495 C 175.996 265.612,174.196 265.079,172.378 261.038 C 169.161 253.886,168.714 253.055,166.169 249.472 C 163.466 245.665,163.583 245.860,162.660 243.652 C 161.792 241.575,158.748 239.764,156.127 239.764 C 154.425 239.764,154.369 239.355,155.709 236.688 C 156.250 235.610,156.693 234.554,156.693 234.342 C 156.693 234.130,157.148 232.927,157.704 231.670 C 158.522 229.820,158.667 229.030,158.461 227.537 C 158.294 226.319,158.419 224.979,158.828 223.601 C 159.170 222.451,159.449 220.514,159.449 219.295 C 159.449 215.963,159.892 215.579,163.929 215.413 C 168.041 215.244,168.350 214.985,167.752 212.200 C 167.516 211.099,167.322 209.630,167.320 208.937 C 167.319 208.244,167.069 207.199,166.764 206.615 C 166.459 206.030,165.929 204.588,165.587 203.410 C 164.964 201.267,163.789 199.703,161.664 198.187 C 160.788 197.562,160.595 197.188,160.805 196.526 C 161.227 195.196,162.496 195.142,167.662 196.232 C 173.686 197.504,175.541 197.519,177.680 196.314 C 181.751 194.019,182.567 193.458,183.928 192.016 C 185.670 190.171,186.665 190.192,187.051 192.081 C 187.379 193.683,187.561 193.806,191.461 195.068 C 196.192 196.598,198.384 195.956,202.703 191.773 C 204.276 190.249,205.448 189.412,205.852 189.524 C 206.206 189.622,207.509 189.985,208.747 190.331 M301.970 195.471 C 301.462 196.011,301.121 196.520,301.212 196.600 C 301.303 196.681,301.790 196.238,302.294 195.617 C 303.421 194.228,303.222 194.138,301.970 195.471 M274.773 199.114 L 273.819 200.197 274.829 199.311 C 276.110 198.186,276.279 198.198,277.734 199.508 L 278.937 200.591 277.781 199.311 C 276.372 197.752,275.996 197.728,274.773 199.114 M273.291 200.882 C 273.022 201.151,271.791 201.480,270.555 201.612 L 268.307 201.853 270.330 201.911 C 271.942 201.957,275.499 200.498,273.996 200.407 C 273.877 200.400,273.560 200.614,273.291 200.882 M282.011 201.845 C 282.147 202.066,283.637 203.185,285.322 204.332 C 287.007 205.478,288.120 206.154,287.795 205.833 C 286.907 204.956,281.725 201.383,282.011 201.845 M254.123 203.081 C 254.969 204.078,254.995 204.078,262.795 203.205 L 265.945 202.852 262.992 202.990 C 261.368 203.067,258.920 203.239,257.551 203.373 C 255.476 203.576,254.921 203.496,254.205 202.891 L 253.346 202.165 254.123 203.081 M113.074 234.426 C 113.821 234.738,114.662 235.270,114.942 235.607 C 115.239 235.966,116.073 236.220,116.949 236.220 C 119.914 236.220,121.322 240.815,119.195 243.549 C 116.752 246.691,116.417 246.937,114.862 246.729 C 112.229 246.377,112.480 247.762,115.389 249.629 C 117.593 251.043,117.748 251.577,116.286 252.727 C 114.248 254.330,112.950 260.377,113.784 264.388 C 114.052 265.677,114.305 268.593,114.347 270.866 C 114.434 275.578,115.128 277.612,116.977 278.568 C 119.092 279.662,118.782 282.463,116.574 282.205 C 115.844 282.120,115.299 281.609,114.621 280.378 C 113.228 277.844,112.014 277.282,107.238 276.956 L 103.154 276.678 100.691 278.704 C 97.945 280.964,96.711 281.451,95.558 280.730 C 94.030 279.776,91.494 279.048,88.662 278.750 C 84.699 278.333,83.858 277.535,83.858 274.192 C 83.858 271.195,83.396 270.718,80.371 270.603 C 79.158 270.556,78.101 270.328,78.024 270.095 C 77.327 268.006,75.347 268.068,73.719 270.230 C 72.178 272.277,69.919 272.369,66.223 270.537 C 63.608 269.240,62.370 269.717,61.426 272.384 C 61.097 273.317,60.472 274.271,60.039 274.504 C 59.606 274.738,58.756 275.340,58.150 275.841 C 57.112 276.700,56.815 276.741,53.057 276.537 C 48.734 276.302,48.522 276.214,46.282 273.713 L 44.776 272.032 45.645 269.776 C 46.123 268.535,46.651 266.984,46.818 266.329 C 46.984 265.675,47.326 264.756,47.576 264.288 C 48.295 262.946,48.119 261.858,46.889 260.035 C 46.260 259.104,45.620 257.945,45.466 257.460 C 45.018 256.049,42.210 253.257,39.710 251.739 C 38.440 250.968,37.402 250.191,37.402 250.014 C 37.402 249.492,38.410 249.256,39.012 249.637 C 39.802 250.137,41.636 250.082,42.644 249.527 C 43.117 249.267,44.868 249.022,46.535 248.982 C 49.857 248.903,50.353 249.165,51.064 251.378 C 51.894 253.960,53.731 253.030,53.787 250.000 C 53.814 248.593,53.858 247.219,53.886 246.949 C 53.955 246.279,55.154 246.329,56.173 247.043 C 56.926 247.570,57.100 247.556,57.904 246.905 L 58.799 246.181 57.943 244.796 C 55.563 240.946,57.936 239.873,61.762 243.069 C 63.706 244.694,64.849 245.081,66.638 244.724 C 67.417 244.568,68.590 244.723,69.731 245.133 C 73.114 246.350,74.861 245.003,79.346 237.721 C 79.998 236.663,80.369 236.436,81.315 236.515 C 83.341 236.684,84.757 236.658,87.893 236.393 C 90.169 236.200,91.319 236.283,92.421 236.721 C 93.691 237.225,94.420 237.236,97.638 236.801 C 99.695 236.523,102.828 236.124,104.601 235.915 C 106.808 235.655,108.174 235.274,108.932 234.709 C 110.248 233.728,111.240 233.660,113.074 234.426 " stroke="none" fill="#d7f3b7" fill-rule="evenodd"></path></g></svg>